<svg width="32" height="32" viewBox="0 0 32 32" fill="none" xmlns="http://www.w3.org/2000/svg">
<path d="M8.28 21.912C7.824 21.776 7.516 21.644 7.356 21.516C7.196 21.396 7.116 21.228 7.116 21.012C7.116 20.772 7.172 20.436 7.284 20.004C7.396 19.564 7.54 19.076 7.716 18.54C7.9 18.004 8.108 17.444 8.34 16.86C8.572 16.276 8.808 15.716 9.048 15.18C9.288 14.644 9.52 14.156 9.744 13.716C9.976 13.268 10.18 12.92 10.356 12.672L10.272 12.168C10.384 12.168 10.54 12.196 10.74 12.252C10.94 12.308 11.14 12.376 11.34 12.456C11.548 12.536 11.728 12.62 11.88 12.708C12.04 12.788 12.128 12.856 12.144 12.912C12.104 13.104 12.072 13.396 12.048 13.788C12.024 14.172 12.012 14.584 12.012 15.024C12.012 15.896 12.044 16.752 12.108 17.592C12.18 18.424 12.34 19.272 12.588 20.136C12.716 19.496 12.852 18.86 12.996 18.228C13.148 17.588 13.304 16.98 13.464 16.404C13.624 15.82 13.784 15.28 13.944 14.784C14.104 14.288 14.256 13.856 14.4 13.488C14.552 13.112 14.692 12.82 14.82 12.612C14.948 12.396 15.064 12.28 15.168 12.264C15.256 12.28 15.352 12.316 15.456 12.372C15.56 12.42 15.66 12.48 15.756 12.552C15.852 12.624 15.94 12.704 16.02 12.792C16.1 12.88 16.164 12.968 16.212 13.056C15.956 13.16 15.7 13.404 15.444 13.788C15.196 14.172 14.956 14.64 14.724 15.192C14.5 15.736 14.288 16.328 14.088 16.968C13.896 17.608 13.724 18.24 13.572 18.864C13.428 19.48 13.312 20.052 13.224 20.58C13.144 21.108 13.1 21.532 13.092 21.852C13.092 21.868 13.096 21.88 13.104 21.888C13.08 21.896 13.052 21.9 13.02 21.9C12.996 21.9 12.972 21.9 12.948 21.9C12.58 21.9 12.252 21.852 11.964 21.756C11.684 21.668 11.5 21.54 11.412 21.372C11.244 20.7 11.104 20.052 10.992 19.428C10.88 18.804 10.784 18.18 10.704 17.556C10.632 16.932 10.572 16.304 10.524 15.672C10.484 15.032 10.452 14.364 10.428 13.668C10.276 13.908 10.116 14.224 9.948 14.616C9.78 15 9.616 15.424 9.456 15.888C9.296 16.352 9.14 16.84 8.988 17.352C8.844 17.864 8.716 18.364 8.604 18.852C8.492 19.34 8.404 19.804 8.34 20.244C8.276 20.676 8.244 21.052 8.244 21.372C8.244 21.54 8.244 21.66 8.244 21.732C8.252 21.804 8.264 21.864 8.28 21.912ZM16.2074 20.376C16.3274 20.112 16.4714 19.772 16.6394 19.356C16.8074 18.94 16.9834 18.492 17.1674 18.012C17.3514 17.524 17.5394 17.028 17.7314 16.524C17.9234 16.012 18.1034 15.528 18.2714 15.072C18.4394 14.616 18.5834 14.208 18.7034 13.848C18.8314 13.488 18.9234 13.212 18.9794 13.02C18.4754 13.228 18.0434 13.544 17.6834 13.968C17.3234 14.392 17.0514 14.924 16.8674 15.564C16.6834 15.5 16.5154 15.388 16.3634 15.228C16.2114 15.06 16.1114 14.852 16.0634 14.604C16.1434 14.236 16.2914 13.9 16.5074 13.596C16.7314 13.292 17.0114 13.032 17.3474 12.816C17.6834 12.6 18.0714 12.436 18.5114 12.324C18.9514 12.204 19.4234 12.144 19.9274 12.144C20.5674 12.144 21.1554 12.24 21.6914 12.432C22.2274 12.616 22.6874 12.876 23.0714 13.212C23.4554 13.548 23.7554 13.952 23.9714 14.424C24.1874 14.896 24.2954 15.42 24.2954 15.996C24.2954 16.78 24.1514 17.528 23.8634 18.24C23.5754 18.952 23.1834 19.58 22.6874 20.124C22.1994 20.668 21.6314 21.1 20.9834 21.42C20.3354 21.748 19.6554 21.912 18.9434 21.912C18.2874 21.912 17.7234 21.78 17.2514 21.516C16.7874 21.26 16.4394 20.88 16.2074 20.376ZM20.4434 12.744C20.0434 12.744 19.6634 12.8 19.3034 12.912C19.6554 13.04 19.9474 13.176 20.1794 13.32C20.4114 13.456 20.5714 13.564 20.6594 13.644C20.5954 13.732 20.4994 13.888 20.3714 14.112C20.2514 14.336 20.1074 14.608 19.9394 14.928C19.7794 15.248 19.6074 15.6 19.4234 15.984C19.2394 16.36 19.0594 16.748 18.8834 17.148C18.4274 18.164 18.0954 18.964 17.8874 19.548C17.6874 20.132 17.5874 20.536 17.5874 20.76C17.6994 20.8 17.8354 20.828 17.9954 20.844C18.1554 20.86 18.3274 20.868 18.5114 20.868C19.1594 20.868 19.7714 20.72 20.3474 20.424C20.9314 20.12 21.4394 19.716 21.8714 19.212C22.3114 18.708 22.6554 18.124 22.9034 17.46C23.1594 16.788 23.2874 16.084 23.2874 15.348C23.2874 14.524 23.0314 13.884 22.5194 13.428C22.0074 12.972 21.3154 12.744 20.4434 12.744Z" fill="white"/>
</svg>
