<svg width="256" height="256" viewBox="0 0 256 256" fill="none" xmlns="http://www.w3.org/2000/svg">
<g clip-path="url(#clip0_2_2)">
<path d="M69.9531 171.6C66.1531 170.467 63.5865 169.367 62.2531 168.3C60.9198 167.3 60.2531 165.9 60.2531 164.1C60.2531 162.1 60.7198 159.3 61.6531 155.7C62.5865 152.033 63.7865 147.967 65.2531 143.5C66.7865 139.033 68.5198 134.367 70.4531 129.5C72.3865 124.633 74.3531 119.967 76.3531 115.5C78.3531 111.033 80.2865 106.967 82.1531 103.3C84.0865 99.5667 85.7865 96.6667 87.2531 94.6L86.5531 90.4C87.4865 90.4 88.7865 90.6333 90.4531 91.1C92.1198 91.5667 93.7865 92.1333 95.4531 92.8C97.1865 93.4667 98.6865 94.1667 99.9531 94.9C101.286 95.5667 102.02 96.1333 102.153 96.6C101.82 98.2 101.553 100.633 101.353 103.9C101.153 107.1 101.053 110.533 101.053 114.2C101.053 121.467 101.32 128.6 101.853 135.6C102.453 142.533 103.786 149.6 105.853 156.8C106.92 151.467 108.053 146.167 109.253 140.9C110.52 135.567 111.82 130.5 113.153 125.7C114.486 120.833 115.82 116.333 117.153 112.2C118.486 108.067 119.753 104.467 120.953 101.4C122.22 98.2667 123.386 95.8333 124.453 94.1C125.52 92.3 126.486 91.3333 127.353 91.2C128.086 91.3333 128.886 91.6333 129.753 92.1C130.62 92.5 131.453 93 132.253 93.6C133.053 94.2 133.786 94.8667 134.453 95.6C135.12 96.3333 135.653 97.0667 136.053 97.8C133.92 98.6667 131.786 100.7 129.653 103.9C127.586 107.1 125.586 111 123.653 115.6C121.786 120.133 120.02 125.067 118.353 130.4C116.753 135.733 115.32 141 114.053 146.2C112.853 151.333 111.886 156.1 111.153 160.5C110.486 164.9 110.12 168.433 110.053 171.1C110.053 171.233 110.086 171.333 110.153 171.4C109.953 171.467 109.72 171.5 109.453 171.5C109.253 171.5 109.053 171.5 108.853 171.5C105.786 171.5 103.053 171.1 100.653 170.3C98.3198 169.567 96.7865 168.5 96.0531 167.1C94.6531 161.5 93.4865 156.1 92.5531 150.9C91.6198 145.7 90.8198 140.5 90.1531 135.3C89.5531 130.1 89.0531 124.867 88.6531 119.6C88.3198 114.267 88.0531 108.7 87.8531 102.9C86.5865 104.9 85.2531 107.533 83.8531 110.8C82.4531 114 81.0865 117.533 79.7531 121.4C78.4198 125.267 77.1198 129.333 75.8531 133.6C74.6531 137.867 73.5865 142.033 72.6531 146.1C71.7198 150.167 70.9865 154.033 70.4531 157.7C69.9198 161.3 69.6531 164.433 69.6531 167.1C69.6531 168.5 69.6531 169.5 69.6531 170.1C69.7198 170.7 69.8198 171.2 69.9531 171.6ZM136.015 158.8C137.015 156.6 138.215 153.767 139.615 150.3C141.015 146.833 142.482 143.1 144.015 139.1C145.548 135.033 147.115 130.9 148.715 126.7C150.315 122.433 151.815 118.4 153.215 114.6C154.615 110.8 155.815 107.4 156.815 104.4C157.882 101.4 158.648 99.1 159.115 97.5C154.915 99.2333 151.315 101.867 148.315 105.4C145.315 108.933 143.048 113.367 141.515 118.7C139.982 118.167 138.582 117.233 137.315 115.9C136.048 114.5 135.215 112.767 134.815 110.7C135.482 107.633 136.715 104.833 138.515 102.3C140.382 99.7667 142.715 97.6 145.515 95.8C148.315 94 151.548 92.6333 155.215 91.7C158.882 90.7 162.815 90.2 167.015 90.2C172.348 90.2 177.248 91 181.715 92.6C186.182 94.1333 190.015 96.3 193.215 99.1C196.415 101.9 198.915 105.267 200.715 109.2C202.515 113.133 203.415 117.5 203.415 122.3C203.415 128.833 202.215 135.067 199.815 141C197.415 146.933 194.148 152.167 190.015 156.7C185.948 161.233 181.215 164.833 175.815 167.5C170.415 170.233 164.748 171.6 158.815 171.6C153.348 171.6 148.648 170.5 144.715 168.3C140.848 166.167 137.948 163 136.015 158.8ZM171.315 95.2C167.982 95.2 164.815 95.6667 161.815 96.6C164.748 97.6667 167.182 98.8 169.115 100C171.048 101.133 172.382 102.033 173.115 102.7C172.582 103.433 171.782 104.733 170.715 106.6C169.715 108.467 168.515 110.733 167.115 113.4C165.782 116.067 164.348 119 162.815 122.2C161.282 125.333 159.782 128.567 158.315 131.9C154.515 140.367 151.748 147.033 150.015 151.9C148.348 156.767 147.515 160.133 147.515 162C148.448 162.333 149.582 162.567 150.915 162.7C152.248 162.833 153.682 162.9 155.215 162.9C160.615 162.9 165.715 161.667 170.515 159.2C175.382 156.667 179.615 153.3 183.215 149.1C186.882 144.9 189.748 140.033 191.815 134.5C193.948 128.9 195.015 123.033 195.015 116.9C195.015 110.033 192.882 104.7 188.615 100.9C184.348 97.1 178.582 95.2 171.315 95.2Z" fill="white"/>
</g>
<defs>
<clipPath id="clip0_2_2">
<rect width="256" height="256" fill="white"/>
</clipPath>
</defs>
</svg>
