<svg width="144" height="82" viewBox="0 0 144 82" fill="none" xmlns="http://www.w3.org/2000/svg">
<path d="M10.4531 81.6C6.65313 80.4667 4.08646 79.3667 2.75313 78.3C1.41979 77.3 0.753125 75.9 0.753125 74.1C0.753125 72.1 1.21979 69.3 2.15313 65.7C3.08646 62.0333 4.28646 57.9667 5.75313 53.5C7.28646 49.0333 9.01979 44.3667 10.9531 39.5C12.8865 34.6333 14.8531 29.9667 16.8531 25.5C18.8531 21.0333 20.7865 16.9667 22.6531 13.3C24.5865 9.56666 26.2865 6.66666 27.7531 4.6L27.0531 0.399994C27.9865 0.399994 29.2865 0.633328 30.9531 1.1C32.6198 1.56666 34.2865 2.13333 35.9531 2.8C37.6865 3.46666 39.1865 4.16666 40.4531 4.9C41.7865 5.56666 42.5198 6.13333 42.6531 6.6C42.3198 8.2 42.0531 10.6333 41.8531 13.9C41.6531 17.1 41.5531 20.5333 41.5531 24.2C41.5531 31.4667 41.8198 38.6 42.3531 45.6C42.9531 52.5333 44.2865 59.6 46.3531 66.8C47.4198 61.4667 48.5531 56.1667 49.7531 50.9C51.0198 45.5667 52.3198 40.5 53.6531 35.7C54.9865 30.8333 56.3198 26.3333 57.6531 22.2C58.9865 18.0667 60.2531 14.4667 61.4531 11.4C62.7198 8.26666 63.8865 5.83333 64.9531 4.09999C66.0198 2.3 66.9865 1.33333 67.8531 1.2C68.5865 1.33333 69.3865 1.63333 70.2531 2.1C71.1198 2.49999 71.9531 2.99999 72.7531 3.59999C73.5531 4.19999 74.2865 4.86666 74.9531 5.6C75.6198 6.33333 76.1531 7.06666 76.5531 7.79999C74.4198 8.66666 72.2865 10.7 70.1531 13.9C68.0865 17.1 66.0865 21 64.1531 25.6C62.2865 30.1333 60.5198 35.0667 58.8531 40.4C57.2531 45.7333 55.8198 51 54.5531 56.2C53.3531 61.3333 52.3865 66.1 51.6531 70.5C50.9865 74.9 50.6198 78.4333 50.5531 81.1C50.5531 81.2333 50.5865 81.3333 50.6531 81.4C50.4531 81.4667 50.2198 81.5 49.9531 81.5C49.7531 81.5 49.5531 81.5 49.3531 81.5C46.2865 81.5 43.5531 81.1 41.1531 80.3C38.8198 79.5667 37.2865 78.5 36.5531 77.1C35.1531 71.5 33.9865 66.1 33.0531 60.9C32.1198 55.7 31.3198 50.5 30.6531 45.3C30.0531 40.1 29.5531 34.8667 29.1531 29.6C28.8198 24.2667 28.5531 18.7 28.3531 12.9C27.0865 14.9 25.7531 17.5333 24.3531 20.8C22.9531 24 21.5865 27.5333 20.2531 31.4C18.9198 35.2667 17.6198 39.3333 16.3531 43.6C15.1531 47.8667 14.0865 52.0333 13.1531 56.1C12.2198 60.1667 11.4865 64.0333 10.9531 67.7C10.4198 71.3 10.1531 74.4333 10.1531 77.1C10.1531 78.5 10.1531 79.5 10.1531 80.1C10.2198 80.7 10.3198 81.2 10.4531 81.6ZM76.5148 68.8C77.5148 66.6 78.7148 63.7667 80.1148 60.3C81.5148 56.8333 82.9815 53.1 84.5148 49.1C86.0482 45.0333 87.6148 40.9 89.2148 36.7C90.8148 32.4333 92.3148 28.4 93.7148 24.6C95.1148 20.8 96.3148 17.4 97.3148 14.4C98.3815 11.4 99.1482 9.1 99.6148 7.5C95.4148 9.23333 91.8148 11.8667 88.8148 15.4C85.8148 18.9333 83.5482 23.3667 82.0148 28.7C80.4815 28.1667 79.0815 27.2333 77.8148 25.9C76.5482 24.5 75.7148 22.7667 75.3148 20.7C75.9815 17.6333 77.2148 14.8333 79.0148 12.3C80.8815 9.76666 83.2148 7.6 86.0148 5.8C88.8148 4 92.0482 2.63333 95.7148 1.7C99.3815 0.699996 103.315 0.199996 107.515 0.199996C112.848 0.199996 117.748 0.999996 122.215 2.6C126.682 4.13333 130.515 6.3 133.715 9.1C136.915 11.9 139.415 15.2667 141.215 19.2C143.015 23.1333 143.915 27.5 143.915 32.3C143.915 38.8333 142.715 45.0667 140.315 51C137.915 56.9333 134.648 62.1667 130.515 66.7C126.448 71.2333 121.715 74.8333 116.315 77.5C110.915 80.2333 105.248 81.6 99.3148 81.6C93.8482 81.6 89.1482 80.5 85.2148 78.3C81.3482 76.1667 78.4482 73 76.5148 68.8ZM111.815 5.2C108.482 5.2 105.315 5.66666 102.315 6.6C105.248 7.66666 107.682 8.8 109.615 10C111.548 11.1333 112.882 12.0333 113.615 12.7C113.082 13.4333 112.282 14.7333 111.215 16.6C110.215 18.4667 109.015 20.7333 107.615 23.4C106.282 26.0667 104.848 29 103.315 32.2C101.782 35.3333 100.282 38.5667 98.8148 41.9C95.0148 50.3667 92.2482 57.0333 90.5148 61.9C88.8482 66.7667 88.0148 70.1333 88.0148 72C88.9482 72.3333 90.0815 72.5667 91.4148 72.7C92.7482 72.8333 94.1815 72.9 95.7148 72.9C101.115 72.9 106.215 71.6667 111.015 69.2C115.882 66.6667 120.115 63.3 123.715 59.1C127.382 54.9 130.248 50.0333 132.315 44.5C134.448 38.9 135.515 33.0333 135.515 26.9C135.515 20.0333 133.382 14.7 129.115 10.9C124.848 7.1 119.082 5.2 111.815 5.2Z" fill="white"/>
</svg>
